<svg width="300" height="367" viewBox="0 0 300 367" fill="none" xmlns="http://www.w3.org/2000/svg">
<path d="M38.9734 94.3211H46.7568L42.8651 98.7477L38.9734 94.3211Z" fill="white"/>
<path d="M46.7857 104.471H38.9459L42.8658 100.016L46.7857 104.471Z" fill="white"/>
<path d="M38.4951 103.71V95.0542L42.3022 99.3681L38.4951 103.71Z" fill="white"/>
<path d="M258.515 321.178H253.467V317.569H258.515V321.178Z" fill="white"/>
<path d="M258.515 330.567H253.467V326.958H258.515V330.567Z" fill="white"/>
<path d="M249.492 334.176V304.205H271.997V334.176H249.492ZM259.983 306.714H252.03V308.152V311.761V313.199H253.468H258.516H259.955V306.714H259.983ZM259.983 316.103H252.03V317.541V321.15V322.616H253.468H258.516H259.955V316.103H259.983ZM259.983 325.492H252.03V326.93V330.539V331.977H253.468H258.516H259.955V325.492H259.983ZM269.74 309.252H261.788V310.69H269.74V309.252ZM269.74 318.641H261.788V320.079H269.74V318.641ZM269.74 328.03H261.788V329.468H269.74V328.03Z" fill="white"/>
<path d="M258.515 311.79H253.467V308.181H258.515V311.79Z" fill="white"/>
<path d="M146.926 3.4483C166.862 3.4483 183.023 19.6062 183.023 39.538C183.023 59.4697 166.862 75.6276 146.926 75.6276C126.99 75.6276 110.829 59.4697 110.829 39.538C110.829 19.6062 126.99 3.4483 146.926 3.4483Z" fill="white"/>
<path fill-rule="evenodd" clip-rule="evenodd" d="M146.926 72.8793C128.508 72.8793 113.578 57.9513 113.578 39.5379C113.578 21.1246 128.508 6.19659 146.926 6.19659C165.345 6.19659 180.275 21.1246 180.275 39.5379C180.275 57.9513 165.345 72.8793 146.926 72.8793ZM108.081 39.5379C108.081 60.9881 125.473 78.3759 146.926 78.3759C168.379 78.3759 185.772 60.9881 185.772 39.5379C185.772 18.0878 168.379 0.700013 146.926 0.700013C125.473 0.700013 108.081 18.0878 108.081 39.5379Z" fill="#B00E23"/>
<path d="M147.068 68.2969C163.001 68.2969 175.974 55.3272 175.974 39.397H177.948C177.948 56.4268 164.101 70.2706 147.068 70.2706C130.034 70.2706 116.188 56.4268 116.188 39.397H118.162C118.162 55.3272 131.134 68.2969 147.068 68.2969Z" fill="white"/>
<path d="M36.097 237.185C56.0329 237.185 72.1941 253.343 72.1941 273.275C72.1941 293.207 56.0329 309.365 36.097 309.365C16.1612 309.365 0 293.207 0 273.275C0 253.343 16.1612 237.185 36.097 237.185Z" fill="#E8E8E8"/>
<path d="M36.0924 271.589C38.8522 271.589 41.0895 269.352 41.0895 266.592C41.0895 263.833 38.8522 261.596 36.0924 261.596C33.3325 261.596 31.0952 263.833 31.0952 266.592C31.0952 269.352 33.3325 271.589 36.0924 271.589Z" fill="white"/>
<path d="M46.0871 271.311C48.0803 271.311 49.6961 269.695 49.6961 267.703C49.6961 265.71 48.0803 264.094 46.0871 264.094C44.0939 264.094 42.478 265.71 42.478 267.703C42.478 269.695 44.0939 271.311 46.0871 271.311Z" fill="white"/>
<path d="M25.2651 271.033C27.2583 271.033 28.8741 269.418 28.8741 267.425C28.8741 265.432 27.2583 263.817 25.2651 263.817C23.2719 263.817 21.6561 265.432 21.6561 267.425C21.6561 269.418 23.2719 271.033 25.2651 271.033Z" fill="white"/>
<path d="M44.9758 284.079C44.7259 284.467 44.1152 285.05 35.8144 284.912C27.4582 284.773 26.8752 284.19 26.6531 283.801C25.1262 281.165 29.8179 272.532 36.092 272.699C42.2829 272.865 46.6137 281.498 44.9758 284.079Z" fill="white"/>
<path d="M29.846 274.586C28.68 273.476 27.2364 272.699 25.5984 272.643C20.7401 272.532 17.0755 279.222 18.2693 281.276C18.4636 281.581 18.88 282.025 25.3763 282.136C25.7094 279.86 27.3752 276.751 29.846 274.586Z" fill="white"/>
<path d="M46.4206 272.643C44.7271 272.616 43.1725 273.393 41.9232 274.531C44.3385 276.668 45.9487 279.777 46.3095 282.136C52.6669 282.219 53.1389 281.803 53.3332 281.498C54.5825 279.499 51.2233 272.782 46.4206 272.643Z" fill="white"/>
<path d="M49.9147 78.4471C69.8505 78.4471 86.0117 94.605 86.0117 114.537C86.0117 134.469 69.8505 150.626 49.9147 150.626C29.9789 150.626 13.8177 134.469 13.8177 114.537C13.8177 94.605 29.9789 78.4471 49.9147 78.4471Z" fill="#E8E8E8"/>
<path d="M261.83 290.7C282.722 290.7 299.659 307.633 299.659 328.522C299.659 349.41 282.722 366.344 261.83 366.344C240.937 366.344 224 349.41 224 328.522C224 307.633 240.937 290.7 261.83 290.7Z" fill="#E8E8E8"/>
<path d="M259.523 329.881H254.232V326.099H259.523V329.881Z" fill="white"/>
<path d="M259.523 339.721H254.232V335.939H259.523V339.721Z" fill="white"/>
<path d="M250.066 343.503V312.093H273.651V343.503H250.066ZM261.06 314.723H252.726V316.23V320.012V321.519H254.233H259.524H261.031V314.723H261.06ZM261.06 324.563H252.726V326.099V329.881V331.388H254.233H259.524H261.031V324.563H261.06ZM261.06 334.402H252.726V335.909V339.691V341.198H254.233H259.524H261.031V334.402H261.06ZM271.286 317.382H262.952V318.889H271.286V317.382ZM271.286 327.222H262.952V328.729H271.286V327.222ZM271.286 337.062H262.952V338.569H271.286V337.062Z" fill="white"/>
<path d="M259.523 320.042H254.232V316.26H259.523V320.042Z" fill="white"/>
<path d="M32 125.82V120.463H63.5849V125.82H32ZM53.4326 121.872C52.8122 121.872 52.3046 122.38 52.3046 123C52.3046 123.62 52.8122 124.128 53.4326 124.128C54.053 124.128 54.5607 123.62 54.5607 123C54.5607 122.38 54.053 121.872 53.4326 121.872ZM56.8167 121.872C56.1963 121.872 55.6887 122.38 55.6887 123C55.6887 123.62 56.1963 124.128 56.8167 124.128C57.4371 124.128 57.9448 123.62 57.9448 123C57.9448 122.38 57.4371 121.872 56.8167 121.872ZM60.2008 121.872C59.5804 121.872 59.0728 122.38 59.0728 123C59.0728 123.62 59.5804 124.128 60.2008 124.128C60.8213 124.128 61.3289 123.62 61.3289 123C61.3289 122.38 60.8213 121.872 60.2008 121.872Z" fill="white"/>
<path d="M32 102.7H63.5849V119.335H32V102.7ZM48.9205 117.643H59.9188V116.516H48.9205V117.643ZM48.9205 114.824H55.6887V113.696H48.9205V114.824ZM48.9205 112.004H59.9188V110.877H48.9205V112.004ZM48.9205 109.185H59.9188V108.057H48.9205V109.185ZM48.9205 106.365H59.9188V105.238H48.9205V106.365ZM35.6661 106.365V116.516V117.643H36.7941H45.5364H46.6644V116.516V106.365V105.238H45.5364H36.7941H35.6661V106.365Z" fill="white"/>
<path fill-rule="evenodd" clip-rule="evenodd" d="M196.5 282.7C237.093 282.7 270 249.793 270 209.2C270 168.607 237.093 135.7 196.5 135.7C155.907 135.7 123 168.607 123 209.2C123 249.793 155.907 282.7 196.5 282.7ZM196.5 277.7C234.332 277.7 265 247.032 265 209.2C265 171.369 234.332 140.7 196.5 140.7C158.668 140.7 128 171.369 128 209.2C128 247.032 158.668 277.7 196.5 277.7Z" fill="#E8E8E8"/>
</svg>
