<svg width="600" height="600" viewBox="0 0 600 600" fill="none" xmlns="http://www.w3.org/2000/svg">
<path d="M260.383 329.798C262.422 333.137 264.845 336.239 267.564 339.046L260.028 346.552C256.659 343.095 253.674 339.253 251.162 335.087L260.383 329.798Z" fill="#B00E23"/>
<path d="M254.118 289.819C253.202 293.571 252.699 297.472 252.67 301.49H242.03C242.089 296.526 242.71 291.68 243.863 287.071L254.118 289.819Z" fill="#B00E23"/>
<path d="M269.012 340.494C271.82 343.183 274.953 345.577 278.322 347.586L273.002 356.805C268.835 354.323 264.963 351.368 261.505 348.029L269.012 340.494Z" fill="#B00E23"/>
<path d="M254.796 317.21C255.919 321.022 257.456 324.627 259.348 328.025L250.127 333.344C247.762 329.148 245.871 324.686 244.511 319.958L254.796 317.21Z" fill="#B00E23"/>
<path d="M252.64 303.559C252.728 307.577 253.29 311.448 254.236 315.201L243.951 317.949C242.768 313.339 242.118 308.523 242 303.559H252.64V303.559Z" fill="#B00E23"/>
<path d="M280.125 348.62C283.524 350.482 287.129 351.989 290.942 353.082L288.193 363.365C283.494 362.035 279.002 360.174 274.835 357.839L280.125 348.62Z" fill="#B00E23"/>
<path d="M332.762 347.586C336.131 345.577 339.234 343.183 342.071 340.494L349.578 348C346.091 351.339 342.249 354.293 338.082 356.775L332.762 347.586Z" fill="#B00E23"/>
<path d="M343.52 339.046C346.239 336.239 348.663 333.137 350.702 329.798L359.923 335.116C357.411 339.283 354.426 343.095 351.057 346.581L343.52 339.046Z" fill="#B00E23"/>
<path d="M360.956 333.314L351.735 327.995C353.627 324.597 355.164 320.992 356.287 317.181L366.572 319.929C365.212 324.656 363.321 329.148 360.956 333.314Z" fill="#B00E23"/>
<path d="M292.923 353.614C296.646 354.53 300.518 355.032 304.508 355.121V365.758C299.572 365.67 294.785 365.049 290.174 363.897L292.923 353.614Z" fill="#B00E23"/>
<path d="M306.577 355.121C310.567 355.032 314.439 354.53 318.163 353.614L320.911 363.897C316.301 365.049 311.513 365.67 306.577 365.758V355.121Z" fill="#B00E23"/>
<path d="M320.171 353.082C323.954 351.989 327.589 350.482 330.988 348.62L336.308 357.839C332.111 360.174 327.648 362.035 322.949 363.365L320.171 353.082Z" fill="#B00E23"/>
<path d="M304.508 249.337C300.459 249.426 296.529 249.958 292.775 250.874L290.027 240.591C294.667 239.439 299.514 238.759 304.508 238.7V249.337Z" fill="#B00E23"/>
<path d="M350.967 275.104C348.928 271.706 346.534 268.544 343.815 265.707L351.322 258.202C354.691 261.718 357.676 265.589 360.159 269.785L350.967 275.104Z" fill="#B00E23"/>
<path d="M356.464 287.809C355.37 283.968 353.863 280.334 352.001 276.906L361.222 271.587C363.557 275.813 365.419 280.334 366.749 285.061L356.464 287.809Z" fill="#B00E23"/>
<path d="M342.367 264.259C339.53 261.511 336.397 259.088 333.028 257.02L338.347 247.801C342.544 250.342 346.416 253.326 349.903 256.725L342.367 264.259Z" fill="#B00E23"/>
<path d="M356.849 315.201C357.795 311.478 358.327 307.577 358.445 303.559H369.085C368.996 308.523 368.316 313.339 367.134 317.949L356.849 315.201Z" fill="#B00E23"/>
<path d="M358.445 301.49C358.386 297.472 357.883 293.571 356.997 289.819L367.282 287.071C368.405 291.71 369.055 296.526 369.114 301.49H358.445Z" fill="#B00E23"/>
<path d="M278.057 257.02C274.658 259.088 271.555 261.511 268.718 264.259L261.211 256.725C264.698 253.326 268.57 250.342 272.766 247.801L278.057 257.02Z" fill="#B00E23"/>
<path d="M267.269 265.707C264.55 268.544 262.156 271.706 260.117 275.104L250.896 269.785C253.408 265.589 256.363 261.689 259.733 258.202L267.269 265.707Z" fill="#B00E23"/>
<path d="M259.081 276.906C257.219 280.334 255.712 283.998 254.619 287.809L244.334 285.061C245.664 280.334 247.526 275.813 249.86 271.587L259.081 276.906Z" fill="#B00E23"/>
<path d="M318.31 250.904C314.557 249.958 310.626 249.426 306.577 249.367V238.73C311.572 238.818 316.419 239.468 321.059 240.621L318.31 250.904Z" fill="#B00E23"/>
<path d="M331.225 255.986C327.797 254.095 324.132 252.558 320.32 251.435L323.068 241.153C327.826 242.512 332.319 244.403 336.545 246.767L331.225 255.986Z" fill="#B00E23"/>
<path d="M290.765 251.435C286.923 252.558 283.259 254.095 279.86 255.986L274.54 246.767C278.766 244.403 283.288 242.512 288.017 241.153L290.765 251.435Z" fill="#B00E23"/>
</svg>
