<svg width="600" height="600" viewBox="0 0 600 600" fill="none" xmlns="http://www.w3.org/2000/svg">
<path d="M147.973 188.321H155.757L151.865 192.748L147.973 188.321Z" fill="white"/>
<path d="M155.786 198.471H147.946L151.866 194.016L155.786 198.471Z" fill="white"/>
<path d="M147.495 197.71V189.054L151.302 193.368L147.495 197.71Z" fill="white"/>
<path d="M367.515 415.178H362.467V411.569H367.515V415.178Z" fill="white"/>
<path d="M367.515 424.567H362.467V420.958H367.515V424.567Z" fill="white"/>
<path d="M358.492 428.176V398.205H380.997V428.176H358.492ZM368.983 400.714H361.03V402.152V405.761V407.199H362.468H367.516H368.955V400.714H368.983ZM368.983 410.103H361.03V411.541V415.15V416.616H362.468H367.516H368.955V410.103H368.983ZM368.983 419.492H361.03V420.93V424.539V425.977H362.468H367.516H368.955V419.492H368.983ZM378.74 403.252H370.788V404.69H378.74V403.252ZM378.74 412.641H370.788V414.079H378.74V412.641ZM378.74 422.03H370.788V423.468H378.74V422.03Z" fill="white"/>
<path d="M367.515 405.79H362.467V402.181H367.515V405.79Z" fill="white"/>
<path d="M255.926 97.4483C275.862 97.4483 292.023 113.606 292.023 133.538C292.023 153.47 275.862 169.628 255.926 169.628C235.99 169.628 219.829 153.47 219.829 133.538C219.829 113.606 235.99 97.4483 255.926 97.4483Z" fill="white"/>
<path fill-rule="evenodd" clip-rule="evenodd" d="M255.926 166.879C237.508 166.879 222.578 151.951 222.578 133.538C222.578 115.125 237.508 100.197 255.926 100.197C274.345 100.197 289.275 115.125 289.275 133.538C289.275 151.951 274.345 166.879 255.926 166.879ZM217.081 133.538C217.081 154.988 234.473 172.376 255.926 172.376C277.379 172.376 294.772 154.988 294.772 133.538C294.772 112.088 277.379 94.7 255.926 94.7C234.473 94.7 217.081 112.088 217.081 133.538Z" fill="#B00E23"/>
<path d="M256.068 162.297C272.001 162.297 284.974 149.327 284.974 133.397H286.948C286.948 150.427 273.101 164.271 256.068 164.271C239.034 164.271 225.188 150.427 225.188 133.397H227.162C227.162 149.327 240.134 162.297 256.068 162.297Z" fill="white"/>
<path d="M145.097 331.185C165.033 331.185 181.194 347.343 181.194 367.275C181.194 387.207 165.033 403.365 145.097 403.365C125.161 403.365 109 387.207 109 367.275C109 347.343 125.161 331.185 145.097 331.185Z" fill="#E8E8E8"/>
<path d="M145.092 365.589C147.852 365.589 150.09 363.352 150.09 360.592C150.09 357.833 147.852 355.596 145.092 355.596C142.333 355.596 140.095 357.833 140.095 360.592C140.095 363.352 142.333 365.589 145.092 365.589Z" fill="white"/>
<path d="M155.087 365.311C157.08 365.311 158.696 363.695 158.696 361.703C158.696 359.71 157.08 358.094 155.087 358.094C153.094 358.094 151.478 359.71 151.478 361.703C151.478 363.695 153.094 365.311 155.087 365.311Z" fill="white"/>
<path d="M134.265 365.033C136.258 365.033 137.874 363.418 137.874 361.425C137.874 359.432 136.258 357.817 134.265 357.817C132.272 357.817 130.656 359.432 130.656 361.425C130.656 363.418 132.272 365.033 134.265 365.033Z" fill="white"/>
<path d="M153.976 378.079C153.726 378.467 153.115 379.05 144.814 378.912C136.458 378.773 135.875 378.19 135.653 377.801C134.126 375.165 138.818 366.532 145.092 366.699C151.283 366.865 155.614 375.498 153.976 378.079Z" fill="white"/>
<path d="M138.846 368.586C137.68 367.476 136.236 366.699 134.598 366.643C129.74 366.532 126.076 373.222 127.269 375.276C127.464 375.581 127.88 376.025 134.376 376.136C134.709 373.86 136.375 370.751 138.846 368.586Z" fill="white"/>
<path d="M155.421 366.643C153.727 366.616 152.172 367.393 150.923 368.531C153.338 370.668 154.949 373.777 155.31 376.136C161.667 376.219 162.139 375.803 162.333 375.498C163.582 373.499 160.223 366.782 155.421 366.643Z" fill="white"/>
<path d="M158.915 172.447C178.851 172.447 195.012 188.605 195.012 208.537C195.012 228.469 178.851 244.626 158.915 244.626C138.979 244.626 122.818 228.469 122.818 208.537C122.818 188.605 138.979 172.447 158.915 172.447Z" fill="#E8E8E8"/>
<path d="M370.83 384.7C391.722 384.7 408.659 401.633 408.659 422.522C408.659 443.41 391.722 460.344 370.83 460.344C349.937 460.344 333 443.41 333 422.522C333 401.633 349.937 384.7 370.83 384.7Z" fill="#E8E8E8"/>
<path d="M368.523 423.881H363.232V420.099H368.523V423.881Z" fill="white"/>
<path d="M368.523 433.721H363.232V429.939H368.523V433.721Z" fill="white"/>
<path d="M359.066 437.503V406.093H382.651V437.503H359.066ZM370.06 408.723H361.726V410.23V414.012V415.519H363.233H368.524H370.031V408.723H370.06ZM370.06 418.563H361.726V420.099V423.881V425.388H363.233H368.524H370.031V418.563H370.06ZM370.06 428.402H361.726V429.909V433.691V435.198H363.233H368.524H370.031V428.402H370.06ZM380.286 411.382H371.952V412.889H380.286V411.382ZM380.286 421.222H371.952V422.729H380.286V421.222ZM380.286 431.062H371.952V432.569H380.286V431.062Z" fill="white"/>
<path d="M368.523 414.042H363.232V410.26H368.523V414.042Z" fill="white"/>
<path d="M141 219.82V214.463H172.585V219.82H141ZM162.433 215.872C161.812 215.872 161.305 216.38 161.305 217C161.305 217.62 161.812 218.128 162.433 218.128C163.053 218.128 163.561 217.62 163.561 217C163.561 216.38 163.053 215.872 162.433 215.872ZM165.817 215.872C165.196 215.872 164.689 216.38 164.689 217C164.689 217.62 165.196 218.128 165.817 218.128C166.437 218.128 166.945 217.62 166.945 217C166.945 216.38 166.437 215.872 165.817 215.872ZM169.201 215.872C168.58 215.872 168.073 216.38 168.073 217C168.073 217.62 168.58 218.128 169.201 218.128C169.821 218.128 170.329 217.62 170.329 217C170.329 216.38 169.821 215.872 169.201 215.872Z" fill="white"/>
<path d="M141 196.7H172.585V213.335H141V196.7ZM157.92 211.643H168.919V210.516H157.92V211.643ZM157.92 208.824H164.689V207.696H157.92V208.824ZM157.92 206.004H168.919V204.877H157.92V206.004ZM157.92 203.185H168.919V202.057H157.92V203.185ZM157.92 200.365H168.919V199.238H157.92V200.365ZM144.666 200.365V210.516V211.643H145.794H154.536H155.664V210.516V200.365V199.238H154.536H145.794H144.666V200.365Z" fill="white"/>
</svg>
