<svg width="600" height="600" viewBox="0 0 600 600" fill="none" xmlns="http://www.w3.org/2000/svg">
<path d="M247.825 338.222C250.489 342.586 253.656 346.64 257.21 350.308L247.361 360.116C242.958 355.598 239.057 350.579 235.775 345.134L247.825 338.222Z" fill="#B00E23"/>
<path d="M239.638 285.978C238.441 290.882 237.785 295.979 237.746 301.231H223.842C223.92 294.744 224.731 288.411 226.237 282.387L239.638 285.978Z" fill="#B00E23"/>
<path d="M259.102 352.2C262.771 355.714 266.865 358.842 271.267 361.468L264.316 373.515C258.87 370.271 253.811 366.41 249.292 362.047L259.102 352.2Z" fill="#B00E23"/>
<path d="M240.525 321.773C241.992 326.754 244.001 331.465 246.472 335.905L234.423 342.856C231.333 337.373 228.861 331.542 227.084 325.364L240.525 321.773Z" fill="#B00E23"/>
<path d="M237.706 303.934C237.822 309.185 238.556 314.243 239.792 319.147L226.351 322.738C224.807 316.715 223.957 310.421 223.802 303.934H237.706Z" fill="#B00E23"/>
<path d="M273.624 362.819C278.065 365.252 282.777 367.221 287.759 368.65L284.168 382.087C278.027 380.35 272.156 377.917 266.711 374.866L273.624 362.819Z" fill="#B00E23"/>
<path d="M342.409 361.468C346.812 358.842 350.867 355.714 354.574 352.2L364.384 362.008C359.827 366.371 354.806 370.233 349.361 373.476L342.409 361.468Z" fill="#B00E23"/>
<path d="M356.468 350.308C360.021 346.64 363.188 342.586 365.852 338.222L377.902 345.173C374.62 350.617 370.719 355.598 366.316 360.155L356.468 350.308Z" fill="#B00E23"/>
<path d="M379.253 342.817L367.203 335.867C369.675 331.426 371.683 326.716 373.151 321.734L386.591 325.325C384.815 331.504 382.343 337.373 379.253 342.817Z" fill="#B00E23"/>
<path d="M290.348 369.345C295.214 370.542 300.273 371.198 305.487 371.314V385.215C299.037 385.099 292.781 384.288 286.756 382.782L290.348 369.345Z" fill="#B00E23"/>
<path d="M308.191 371.314C313.405 371.198 318.464 370.542 323.331 369.345L326.922 382.782C320.897 384.288 314.641 385.099 308.191 385.215V371.314Z" fill="#B00E23"/>
<path d="M325.955 368.65C330.898 367.221 335.649 365.252 340.09 362.819L347.042 374.866C341.558 377.917 335.726 380.35 329.585 382.087L325.955 368.65Z" fill="#B00E23"/>
<path d="M305.488 233.078C300.196 233.194 295.06 233.889 290.155 235.086L286.563 221.648C292.627 220.142 298.961 219.254 305.488 219.177V233.078Z" fill="#B00E23"/>
<path d="M366.199 266.749C363.534 262.308 360.406 258.177 356.853 254.47L366.663 244.662C371.065 249.257 374.966 254.315 378.21 259.798L366.199 266.749Z" fill="#B00E23"/>
<path d="M373.382 283.353C371.953 278.333 369.984 273.583 367.551 269.104L379.6 262.154C382.651 267.676 385.084 273.583 386.822 279.762L373.382 283.353Z" fill="#B00E23"/>
<path d="M354.96 252.578C351.253 248.987 347.159 245.82 342.756 243.117L349.708 231.07C355.192 234.391 360.251 238.291 364.809 242.731L354.96 252.578Z" fill="#B00E23"/>
<path d="M373.886 319.147C375.122 314.282 375.817 309.185 375.972 303.934H389.875C389.759 310.421 388.871 316.715 387.326 322.738L373.886 319.147Z" fill="#B00E23"/>
<path d="M375.971 301.231C375.894 295.979 375.237 290.882 374.079 285.978L387.519 282.387C388.986 288.45 389.836 294.744 389.913 301.231H375.971Z" fill="#B00E23"/>
<path d="M270.921 243.117C266.479 245.82 262.424 248.987 258.717 252.578L248.907 242.731C253.464 238.291 258.523 234.391 264.008 231.07L270.921 243.117Z" fill="#B00E23"/>
<path d="M256.823 254.47C253.27 258.177 250.142 262.308 247.477 266.749L235.427 259.798C238.71 254.315 242.572 249.218 246.975 244.662L256.823 254.47Z" fill="#B00E23"/>
<path d="M246.124 269.104C243.691 273.583 241.721 278.371 240.292 283.353L226.852 279.762C228.59 273.583 231.023 267.676 234.074 262.154L246.124 269.104Z" fill="#B00E23"/>
<path d="M323.524 235.124C318.619 233.889 313.482 233.194 308.191 233.117V219.216C314.718 219.332 321.052 220.181 327.115 221.687L323.524 235.124Z" fill="#B00E23"/>
<path d="M340.401 241.766C335.921 239.295 331.132 237.287 326.149 235.82L329.741 222.382C335.959 224.158 341.83 226.63 347.352 229.719L340.401 241.766Z" fill="#B00E23"/>
<path d="M287.528 235.82C282.508 237.287 277.719 239.295 273.277 241.766L266.325 229.719C271.848 226.63 277.757 224.158 283.937 222.382L287.528 235.82Z" fill="#B00E23"/>
</svg>
