<svg width="600" height="600" viewBox="0 0 600 600" fill="none" xmlns="http://www.w3.org/2000/svg">
<path d="M454 340.07C452.082 347.669 449.594 355.148 446.506 362.448C438.803 380.638 427.772 396.973 413.714 410.974C399.656 425.005 383.289 436.015 365.095 443.703C346.211 451.661 326.188 455.7 305.535 455.7C298.131 455.7 290.817 455.191 283.593 454.144C284.433 448.251 285.302 442.387 286.141 436.493C274.391 434.878 262.941 431.736 251.94 427.099C235.784 420.278 221.246 410.495 208.776 398.05C196.307 385.604 186.505 371.124 179.671 354.969C172.597 338.245 169 320.504 169 302.225C169 283.945 172.597 266.175 179.671 249.481C186.505 233.356 196.307 218.846 208.776 206.4C221.246 193.955 235.754 184.172 251.94 177.351C268.696 170.29 286.471 166.7 304.786 166.7C323.13 166.7 340.905 170.29 357.631 177.351C373.788 184.172 388.325 193.955 400.795 206.4C413.264 218.846 423.066 233.326 429.9 249.481C436.974 266.205 440.571 283.945 440.571 302.225C440.571 313.623 439.163 324.812 436.405 335.672C442.28 337.138 448.155 338.604 454 340.07ZM427.952 250.289C421.208 234.403 411.586 220.132 399.296 207.866C387.006 195.6 372.708 185.997 356.792 179.265C340.306 172.295 322.8 168.794 304.756 168.794C286.711 168.794 269.206 172.324 252.719 179.265C236.803 185.997 222.505 195.6 210.215 207.866C197.926 220.132 188.304 234.403 181.559 250.289C174.575 266.743 171.068 284.215 171.068 302.225C171.068 320.235 174.605 337.707 181.559 354.161C188.304 370.047 197.926 384.318 210.215 396.584C222.505 408.85 236.803 418.453 252.719 425.184C269.206 432.155 286.711 435.655 304.756 435.655C322.8 435.655 340.306 432.125 356.792 425.184C372.708 418.453 387.006 408.85 399.296 396.584C411.586 384.318 421.208 370.047 427.952 354.161C434.936 337.707 438.443 320.235 438.443 302.225C438.443 284.215 434.936 266.743 427.952 250.289Z" fill="#B00E23"/>
</svg>
