<svg width="773" height="773" viewBox="0 0 773 773" fill="none" xmlns="http://www.w3.org/2000/svg">
<path d="M133.325 291.185C160.862 291.185 183.185 313.504 183.185 341.035C183.185 368.566 160.862 390.884 133.325 390.884C105.788 390.884 83.4652 368.566 83.4652 341.035C83.4652 313.504 105.788 291.185 133.325 291.185Z" fill="white"/>
<path fill-rule="evenodd" clip-rule="evenodd" d="M133.325 387.088C107.884 387.088 87.2613 366.469 87.2613 341.035C87.2613 315.601 107.884 294.981 133.325 294.981C158.766 294.981 179.389 315.601 179.389 341.035C179.389 366.469 158.766 387.088 133.325 387.088ZM79.6691 341.035C79.6691 370.663 103.692 394.68 133.325 394.68C162.958 394.68 186.981 370.663 186.981 341.035C186.981 311.406 162.958 287.389 133.325 287.389C103.692 287.389 79.6691 311.406 79.6691 341.035Z" fill="#B00E23"/>
<path d="M133.52 380.759C155.529 380.759 173.447 362.844 173.447 340.84H176.174C176.174 364.363 157.048 383.485 133.52 383.485C109.992 383.485 90.8663 364.363 90.8663 340.84H93.5931C93.5931 362.844 111.512 380.759 133.52 380.759Z" fill="white"/>
<path d="M491.37 564.323C520.267 564.323 543.692 587.748 543.692 616.644C543.692 645.54 520.267 668.966 491.37 668.966C462.474 668.966 439.049 645.54 439.049 616.644C439.049 587.748 462.474 564.323 491.37 564.323Z" fill="#E8E8E8"/>
<path d="M489.106 619.546H481.799V614.322H489.106V619.546Z" fill="white"/>
<path d="M489.106 633.137H481.799V627.913H489.106V633.137Z" fill="white"/>
<path d="M476.044 638.361V594.976H508.621V638.361H476.044ZM491.23 598.608H479.718V600.69V605.914V607.995H481.8H489.107H491.189V598.608H491.23ZM491.23 612.199H479.718V614.322V619.546V621.627H481.8H489.107H491.189V612.199H491.23ZM491.23 625.79H479.718V627.872V633.096V635.178H481.8H489.107H491.189V625.79H491.23ZM505.355 602.281H493.843V604.363H505.355V602.281ZM505.355 615.873H493.843V617.954H505.355V615.873ZM505.355 629.464H493.843V631.545H505.355V629.464Z" fill="white"/>
<path d="M489.106 605.955H481.799V600.73H489.106V605.955Z" fill="white"/>
<path d="M549.151 193.271C552.963 193.271 556.053 190.182 556.053 186.37C556.053 182.559 552.963 179.469 549.151 179.469C545.339 179.469 542.249 182.559 542.249 186.37C542.249 190.182 545.339 193.271 549.151 193.271Z" fill="white"/>
<path d="M562.957 192.888C565.71 192.888 567.942 190.657 567.942 187.904C567.942 185.151 565.71 182.92 562.957 182.92C560.204 182.92 557.972 185.151 557.972 187.904C557.972 190.657 560.204 192.888 562.957 192.888Z" fill="white"/>
<path d="M534.195 192.505C536.949 192.505 539.18 190.273 539.18 187.521C539.18 184.768 536.949 182.537 534.195 182.537C531.442 182.537 529.21 184.768 529.21 187.521C529.21 190.273 531.442 192.505 534.195 192.505Z" fill="white"/>
<path d="M561.422 210.524C561.077 211.061 560.233 211.866 548.768 211.674C537.225 211.482 536.42 210.677 536.113 210.141C534.004 206.498 540.485 194.575 549.151 194.805C557.702 195.035 563.684 206.959 561.422 210.524Z" fill="white"/>
<path d="M540.523 197.412C538.913 195.879 536.919 194.805 534.656 194.728C527.946 194.575 522.884 203.815 524.533 206.652C524.801 207.074 525.376 207.687 534.349 207.84C534.81 204.697 537.11 200.403 540.523 197.412Z" fill="white"/>
<path d="M563.417 194.729C561.078 194.69 558.931 195.764 557.205 197.336C560.541 200.288 562.765 204.582 563.264 207.84C572.045 207.955 572.697 207.38 572.965 206.959C574.691 204.198 570.051 194.92 563.417 194.729Z" fill="white"/>
<path d="M549.205 145.164C576.597 145.164 598.803 167.641 598.803 195.367C598.803 223.093 576.597 245.57 549.205 245.57C521.813 245.57 499.607 223.093 499.607 195.367C499.607 167.641 521.813 145.164 549.205 145.164Z" fill="#E8E8E8"/>
<path d="M133.325 291.185C160.862 291.185 183.185 313.504 183.185 341.035C183.185 368.566 160.862 390.884 133.325 390.884C105.788 390.884 83.4652 368.566 83.4652 341.035C83.4652 313.504 105.788 291.185 133.325 291.185Z" fill="white"/>
<path fill-rule="evenodd" clip-rule="evenodd" d="M133.325 387.088C107.884 387.088 87.2613 366.469 87.2613 341.035C87.2613 315.601 107.884 294.981 133.325 294.981C158.766 294.981 179.389 315.601 179.389 341.035C179.389 366.469 158.766 387.088 133.325 387.088ZM79.6691 341.035C79.6691 370.663 103.692 394.68 133.325 394.68C162.958 394.68 186.981 370.663 186.981 341.035C186.981 311.406 162.958 287.389 133.325 287.389C103.692 287.389 79.6691 311.406 79.6691 341.035Z" fill="#B00E23"/>
<path d="M133.52 380.759C155.529 380.759 173.447 362.844 173.447 340.84H176.174C176.174 364.363 157.048 383.485 133.52 383.485C109.992 383.485 90.8663 364.363 90.8663 340.84H93.5931C93.5931 362.844 111.512 380.759 133.52 380.759Z" fill="white"/>
<path d="M491.37 564.323C520.267 564.323 543.692 587.748 543.692 616.644C543.692 645.54 520.267 668.966 491.37 668.966C462.474 668.966 439.049 645.54 439.049 616.644C439.049 587.748 462.474 564.323 491.37 564.323Z" fill="#E8E8E8"/>
<path d="M489.106 619.546H481.799V614.322H489.106V619.546Z" fill="white"/>
<path d="M489.106 633.137H481.799V627.913H489.106V633.137Z" fill="white"/>
<path d="M476.044 638.361V594.976H508.621V638.361H476.044ZM491.23 598.608H479.718V600.69V605.914V607.995H481.8H489.107H491.189V598.608H491.23ZM491.23 612.199H479.718V614.322V619.546V621.627H481.8H489.107H491.189V612.199H491.23ZM491.23 625.79H479.718V627.872V633.096V635.178H481.8H489.107H491.189V625.79H491.23ZM505.355 602.281H493.843V604.363H505.355V602.281ZM505.355 615.873H493.843V617.954H505.355V615.873ZM505.355 629.464H493.843V631.545H505.355V629.464Z" fill="white"/>
<path d="M489.106 605.955H481.799V600.73H489.106V605.955Z" fill="white"/>
<path d="M549.151 193.271C552.963 193.271 556.053 190.182 556.053 186.37C556.053 182.559 552.963 179.469 549.151 179.469C545.339 179.469 542.249 182.559 542.249 186.37C542.249 190.182 545.339 193.271 549.151 193.271Z" fill="white"/>
<path d="M562.957 192.888C565.71 192.888 567.942 190.657 567.942 187.904C567.942 185.151 565.71 182.92 562.957 182.92C560.204 182.92 557.972 185.151 557.972 187.904C557.972 190.657 560.204 192.888 562.957 192.888Z" fill="white"/>
<path d="M534.195 192.505C536.949 192.505 539.18 190.273 539.18 187.521C539.18 184.768 536.949 182.537 534.195 182.537C531.442 182.537 529.21 184.768 529.21 187.521C529.21 190.273 531.442 192.505 534.195 192.505Z" fill="white"/>
<path d="M561.422 210.524C561.077 211.061 560.233 211.866 548.768 211.674C537.225 211.482 536.42 210.677 536.113 210.141C534.004 206.498 540.485 194.575 549.151 194.805C557.702 195.035 563.684 206.959 561.422 210.524Z" fill="white"/>
<path d="M540.523 197.412C538.913 195.879 536.919 194.805 534.656 194.728C527.946 194.575 522.884 203.815 524.533 206.652C524.801 207.074 525.376 207.687 534.349 207.84C534.81 204.697 537.11 200.403 540.523 197.412Z" fill="white"/>
<path d="M563.417 194.729C561.078 194.69 558.931 195.764 557.205 197.336C560.541 200.288 562.765 204.582 563.264 207.84C572.045 207.955 572.697 207.38 572.965 206.959C574.691 204.198 570.051 194.92 563.417 194.729Z" fill="white"/>
<path fill-rule="evenodd" clip-rule="evenodd" d="M387.049 499.098C449.484 499.098 500.098 448.484 500.098 386.049C500.098 323.614 449.484 273 387.049 273C324.614 273 274 323.614 274 386.049C274 448.484 324.614 499.098 387.049 499.098ZM387.049 491.408C445.237 491.408 492.407 444.237 492.407 386.049C492.407 327.861 445.237 280.691 387.049 280.691C328.861 280.691 281.69 327.861 281.69 386.049C281.69 444.237 328.861 491.408 387.049 491.408Z" fill="#E8E8E8"/>
</svg>
