<svg width="600" height="600" viewBox="0 0 600 600" fill="none" xmlns="http://www.w3.org/2000/svg">
<path opacity="0.5" d="M395.269 156.737L401.67 145.628C403.532 146.784 405.337 147.968 407.141 149.181C408.608 150.168 410.074 151.211 411.541 152.254L403.729 162.404C400.994 160.459 398.174 158.57 395.269 156.737Z" fill="#E8E8E8"/>
<path opacity="0.5" d="M445.806 204.584L455.986 196.774C456.945 198.099 457.876 199.453 458.778 200.806C460.075 202.723 461.344 204.697 462.585 206.67L451.474 213.071C449.669 210.195 447.78 207.347 445.806 204.584Z" fill="#E8E8E8"/>
<path opacity="0.5" d="M352.94 137.282L356.268 124.905C360.047 126.061 363.825 127.358 367.548 128.739L362.641 140.581C359.454 139.397 356.211 138.269 352.94 137.282Z" fill="#E8E8E8"/>
<path opacity="0.5" d="M374.766 145.628L379.673 133.786C383.283 135.422 386.837 137.198 390.333 139.059L383.932 150.139C380.914 148.56 377.869 147.038 374.766 145.628Z" fill="#E8E8E8"/>
<path opacity="0.5" d="M431.112 186.483L440.165 177.432C442.872 180.336 445.467 183.325 448.005 186.37L437.852 194.18C435.653 191.53 433.425 188.992 431.112 186.483Z" fill="#E8E8E8"/>
<path opacity="0.5" d="M414.163 170.44L421.975 160.261C425.021 162.799 428.01 165.421 430.915 168.128L421.862 177.178C419.352 174.866 416.786 172.611 414.163 170.44Z" fill="#E8E8E8"/>
<path opacity="0.5" d="M330.238 131.869L331.902 119.153C335.822 119.801 339.713 120.591 343.577 121.465L340.249 133.843C336.95 133.11 333.622 132.433 330.238 131.869Z" fill="#E8E8E8"/>
<path opacity="0.5" d="M307 129.501V116.7C310.976 116.841 314.953 117.095 318.872 117.461L317.209 130.177C313.853 129.839 310.44 129.613 307 129.501Z" fill="#E8E8E8"/>
<path opacity="0.5" d="M474.204 268.079L486.584 264.752C487.458 268.615 488.248 272.506 488.868 276.397L476.15 278.06C475.614 274.705 474.966 271.378 474.204 268.079Z" fill="#E8E8E8"/>
<path opacity="0.5" d="M477.87 291.115L490.589 289.451C490.955 293.37 491.209 297.318 491.35 301.293H478.547C478.406 297.853 478.18 294.47 477.87 291.115Z" fill="#E8E8E8"/>
<path opacity="0.5" d="M467.577 245.72L479.421 240.815C480.803 244.536 482.072 248.286 483.229 252.064L470.848 255.391C469.833 252.121 468.762 248.907 467.577 245.72Z" fill="#E8E8E8"/>
<path opacity="0.5" d="M458.044 224.433L469.127 218.033C470.989 221.529 472.737 225.082 474.373 228.691L462.528 233.597C461.146 230.495 459.623 227.45 458.044 224.433Z" fill="#E8E8E8"/>
<path d="M189.484 423.158C198.113 431.898 207.701 439.68 218.107 446.362L200.482 474.867C187.594 466.634 175.722 456.992 165.09 446.137L189.484 423.158Z" fill="#B00E23"/>
<path d="M223.663 449.774C234.182 455.948 245.434 461.024 257.278 464.83L247.633 496.944C232.941 492.292 219.01 485.976 206.037 478.279L223.663 449.774Z" fill="#B00E23"/>
<path d="M263.511 466.663C275.158 469.877 287.312 471.879 299.834 472.499L298.847 505.995C283.308 505.29 268.248 502.809 253.866 498.777L263.511 466.663Z" fill="#B00E23"/>
<path d="M205.588 158.378C192.813 167.316 181.279 177.861 171.183 189.844C156.039 207.804 144.674 228.274 137.37 250.689C130.066 273.104 127.19 296.365 128.854 319.766C129.982 335.64 133.14 351.176 138.329 366.119C137.709 366.345 137.088 366.542 136.468 366.768C131.222 351.655 128.008 335.95 126.88 319.907C125.216 296.224 128.12 272.737 135.509 250.068C142.898 227.4 154.404 206.704 169.688 188.575C179.925 176.451 191.572 165.793 204.488 156.743C204.827 157.278 205.222 157.842 205.588 158.378Z" fill="#E8E8E8"/>
</svg>
