<svg width="600" height="600" viewBox="0 0 600 600" fill="none" xmlns="http://www.w3.org/2000/svg">
<path d="M500.65 351.85C498.146 361.79 494.898 371.572 490.868 381.12C480.813 404.911 466.415 426.276 448.066 444.59C429.716 462.942 408.354 477.342 384.605 487.398C359.956 497.807 333.821 503.09 306.864 503.09C297.2 503.09 287.653 502.424 278.224 501.055C279.32 493.346 280.454 485.676 281.55 477.968C266.213 475.855 251.267 471.746 236.908 465.681C215.82 456.759 196.844 443.963 180.568 427.685C164.292 411.407 151.499 392.468 142.578 371.337C133.345 349.463 128.65 326.259 128.65 302.35C128.65 278.442 133.345 255.198 142.578 233.363C151.499 212.272 164.292 193.294 180.568 177.016C196.844 160.737 215.781 147.942 236.908 139.02C258.779 129.785 281.98 125.09 305.886 125.09C329.83 125.09 353.031 129.785 374.863 139.02C395.951 147.942 414.927 160.737 431.203 177.016C447.479 193.294 460.273 212.233 469.193 233.363C478.427 255.237 483.122 278.442 483.122 302.35C483.122 317.259 481.283 331.894 477.683 346.098C485.352 348.016 493.02 349.933 500.65 351.85ZM466.65 234.42C457.847 213.642 445.288 194.977 429.247 178.933C413.205 162.89 394.543 150.329 373.768 141.524C352.249 132.407 329.4 127.829 305.847 127.829C282.293 127.829 259.444 132.446 237.926 141.524C217.15 150.329 198.488 162.89 182.446 178.933C166.405 194.977 153.846 213.642 145.043 234.42C135.927 255.942 131.349 278.794 131.349 302.35C131.349 325.907 135.966 348.759 145.043 370.281C153.846 391.059 166.405 409.724 182.446 425.768C198.488 441.811 217.15 454.372 237.926 463.176C259.444 472.294 282.293 476.872 305.847 476.872C329.4 476.872 352.249 472.255 373.768 463.176C394.543 454.372 413.205 441.811 429.247 425.768C445.288 409.724 457.847 391.059 466.65 370.281C475.766 348.759 480.344 325.907 480.344 302.35C480.344 278.794 475.766 255.942 466.65 234.42Z" fill="#B00E23"/>
</svg>
