<svg width="773" height="773" viewBox="0 0 773 773" fill="none" xmlns="http://www.w3.org/2000/svg">
<path d="M561.302 432.555C559.087 441.334 556.215 449.975 552.65 458.408C543.756 479.422 531.021 498.294 514.791 514.469C498.56 530.679 479.665 543.398 458.659 552.281C436.857 561.475 413.739 566.141 389.896 566.141C381.348 566.141 372.904 565.553 364.564 564.344C365.532 557.535 366.536 550.76 367.505 543.951C353.939 542.085 340.72 538.456 328.019 533.099C309.366 525.218 292.582 513.916 278.186 499.538C263.789 485.16 252.473 468.431 244.583 449.767C236.416 430.447 232.263 409.951 232.263 388.833C232.263 367.715 236.416 347.185 244.583 327.899C252.473 309.269 263.789 292.506 278.186 278.128C292.582 263.75 309.331 252.448 328.019 244.567C347.364 236.411 367.886 232.263 389.03 232.263C410.21 232.263 430.731 236.411 450.042 244.567C468.695 252.448 485.479 263.75 499.875 278.128C514.271 292.506 525.588 309.235 533.478 327.899C541.645 347.219 545.798 367.715 545.798 388.833C545.798 402.002 544.172 414.928 540.988 427.474C547.771 429.168 554.554 430.862 561.302 432.555ZM531.229 328.832C523.442 310.479 512.334 293.992 498.145 279.822C483.956 265.651 467.449 254.556 449.073 246.779C430.039 238.726 409.829 234.682 388.996 234.682C368.163 234.682 347.952 238.761 328.919 246.779C310.543 254.556 294.035 265.651 279.847 279.822C265.658 293.992 254.549 310.479 246.763 328.832C238.699 347.841 234.651 368.026 234.651 388.833C234.651 409.64 238.734 429.825 246.763 448.834C254.549 467.187 265.658 483.674 279.847 497.845C294.035 512.015 310.543 523.11 328.919 530.887C347.952 538.94 368.163 542.984 388.996 542.984C409.829 542.984 430.039 538.905 449.073 530.887C467.449 523.11 483.956 512.015 498.145 497.845C512.334 483.674 523.442 467.187 531.229 448.834C539.292 429.825 543.341 409.64 543.341 388.833C543.341 368.026 539.292 347.841 531.229 328.832Z" fill="#B00E23"/>
</svg>
