<svg width="600" height="600" viewBox="0 0 600 600" fill="none" xmlns="http://www.w3.org/2000/svg">
<path opacity="0.5" d="M424.092 112.069L432.457 97.5522C434.89 99.0628 437.248 100.61 439.607 102.195C441.523 103.484 443.439 104.847 445.356 106.211L435.148 119.475C431.573 116.933 427.888 114.464 424.092 112.069Z" fill="#E8E8E8"/>
<path opacity="0.5" d="M490.133 174.595L503.436 164.389C504.689 166.12 505.906 167.889 507.085 169.658C508.78 172.163 510.438 174.742 512.06 177.321L497.54 185.685C495.181 181.927 492.712 178.206 490.133 174.595Z" fill="#E8E8E8"/>
<path opacity="0.5" d="M368.777 86.646L373.126 70.4711C378.064 71.9817 383.002 73.6766 387.866 75.482L381.454 90.9568C377.29 89.4094 373.052 87.9355 368.777 86.646Z" fill="#E8E8E8"/>
<path opacity="0.5" d="M397.299 97.5521L403.712 82.0773C408.429 84.2143 413.073 86.5355 417.642 88.9672L409.277 103.447C405.333 101.384 401.353 99.3943 397.299 97.5521Z" fill="#E8E8E8"/>
<path opacity="0.5" d="M470.932 150.94L482.761 139.113C486.299 142.908 489.69 146.814 493.006 150.793L479.739 160.999C476.865 157.536 473.953 154.22 470.932 150.94Z" fill="#E8E8E8"/>
<path opacity="0.5" d="M448.783 129.976L458.991 116.675C462.971 119.991 466.878 123.417 470.674 126.954L458.844 138.781C455.564 135.76 452.21 132.813 448.783 129.976Z" fill="#E8E8E8"/>
<path opacity="0.5" d="M339.111 79.5718L341.285 62.9548C346.407 63.8022 351.493 64.8338 356.541 65.976L352.193 82.1509C347.881 81.193 343.533 80.3087 339.111 79.5718Z" fill="#E8E8E8"/>
<path opacity="0.5" d="M308.743 76.4769V59.7493C313.94 59.9335 319.136 60.2652 324.258 60.7441L322.084 77.3611C317.699 76.919 313.239 76.6242 308.743 76.4769Z" fill="#E8E8E8"/>
<path opacity="0.5" d="M527.243 257.569L543.421 253.222C544.564 258.269 545.595 263.354 546.406 268.439L529.786 270.612C529.086 266.228 528.238 261.88 527.243 257.569Z" fill="#E8E8E8"/>
<path opacity="0.5" d="M532.034 287.672L548.655 285.498C549.134 290.619 549.465 295.778 549.65 300.973H532.919C532.734 296.478 532.44 292.056 532.034 287.672Z" fill="#E8E8E8"/>
<path opacity="0.5" d="M518.583 228.351L534.061 221.94C535.867 226.804 537.525 231.704 539.036 236.641L522.858 240.989C521.531 236.715 520.131 232.515 518.583 228.351Z" fill="#E8E8E8"/>
<path opacity="0.5" d="M506.125 200.534L520.609 192.17C523.041 196.738 525.326 201.381 527.464 206.097L511.985 212.508C510.179 208.455 508.189 204.476 506.125 200.534Z" fill="#E8E8E8"/>
<path d="M155.175 460.223C166.452 471.645 178.981 481.815 192.58 490.547L169.547 527.797C152.706 517.038 137.191 504.437 123.297 490.252L155.175 460.223Z" fill="#B00E23"/>
<path d="M199.84 495.005C213.586 503.074 228.29 509.706 243.768 514.68L231.164 556.646C211.964 550.567 193.759 542.314 176.807 532.255L199.84 495.005Z" fill="#B00E23"/>
<path d="M251.912 517.075C267.132 521.275 283.016 523.891 299.379 524.702L298.089 568.474C277.783 567.553 258.104 564.31 239.309 559.041L251.912 517.075Z" fill="#B00E23"/>
<path d="M176.65 114.223C159.867 125.883 144.714 139.64 131.451 155.273C111.556 178.704 96.625 205.409 87.0295 234.652C77.4339 263.895 73.6549 294.241 75.8408 324.772C77.3227 345.481 81.4722 365.748 88.2891 385.244C87.474 385.538 86.6589 385.795 85.8439 386.09C78.9529 366.374 74.7293 345.885 73.2474 324.955C71.0615 294.057 74.8776 263.417 84.5843 233.843C94.2909 204.269 109.407 177.27 129.487 153.618C142.936 137.801 158.237 123.897 175.205 112.09C175.649 112.788 176.168 113.524 176.65 114.223Z" fill="#E8E8E8"/>
</svg>
