<svg width="773" height="773" viewBox="0 0 773 773" fill="none" xmlns="http://www.w3.org/2000/svg">
<path d="M157.738 610.9C174.596 627.975 193.328 643.177 213.657 656.232L179.224 711.919C154.047 695.835 130.853 676.997 110.083 655.791L157.738 610.9Z" fill="#B00E23"/>
<path d="M224.51 662.897C245.059 674.959 267.041 684.874 290.18 692.31L271.339 755.048C242.635 745.959 215.42 733.621 190.077 718.584L224.51 662.897Z" fill="#B00E23"/>
<path d="M302.356 695.89C325.109 702.17 348.854 706.08 373.315 707.292L371.387 772.729C341.031 771.352 311.611 766.504 283.514 758.628L302.356 695.89Z" fill="#B00E23"/>
<path d="M315.759 429.499C318.982 434.777 322.813 439.682 327.112 444.12L315.198 455.984C309.872 450.519 305.153 444.447 301.182 437.86L315.759 429.499Z" fill="#B00E23"/>
<path d="M305.856 366.299C304.407 372.232 303.613 378.398 303.566 384.75H286.747C286.841 376.903 287.822 369.242 289.644 361.955L305.856 366.299Z" fill="#B00E23"/>
<path d="M329.401 446.408C333.839 450.659 338.791 454.443 344.117 457.619L335.708 472.193C329.12 468.269 323 463.598 317.534 458.32L329.401 446.408Z" fill="#B00E23"/>
<path d="M306.928 409.6C308.704 415.626 311.133 421.325 314.123 426.697L299.547 435.104C295.809 428.472 292.819 421.418 290.67 413.945L306.928 409.6Z" fill="#B00E23"/>
<path d="M303.519 388.02C303.659 394.373 304.546 400.492 306.041 406.424L289.783 410.768C287.914 403.481 286.886 395.867 286.699 388.02H303.519V388.02Z" fill="#B00E23"/>
<path d="M346.968 459.254C352.341 462.197 358.041 464.579 364.068 466.307L359.723 482.563C352.295 480.461 345.193 477.518 338.605 473.828L346.968 459.254Z" fill="#B00E23"/>
<path d="M430.177 457.619C435.503 454.443 440.409 450.659 444.894 446.408L456.761 458.273C451.248 463.551 445.174 468.222 438.587 472.146L430.177 457.619Z" fill="#B00E23"/>
<path d="M447.185 444.12C451.483 439.682 455.314 434.777 458.538 429.499L473.114 437.907C469.143 444.493 464.424 450.519 459.098 456.031L447.185 444.12Z" fill="#B00E23"/>
<path d="M474.748 435.058L460.171 426.65C463.161 421.278 465.591 415.579 467.366 409.554L483.625 413.898C481.476 421.371 478.486 428.472 474.748 435.058Z" fill="#B00E23"/>
<path d="M367.199 467.148C373.085 468.596 379.206 469.39 385.513 469.53V486.346C377.711 486.206 370.142 485.225 362.854 483.403L367.199 467.148Z" fill="#B00E23"/>
<path d="M388.784 469.53C395.091 469.39 401.212 468.596 407.098 467.148L411.443 483.403C404.155 485.225 396.586 486.206 388.784 486.346V469.53Z" fill="#B00E23"/>
<path d="M410.273 466.307C416.253 464.579 422 462.197 427.373 459.254L435.783 473.828C429.148 477.518 422.093 480.461 414.665 482.563L410.273 466.307Z" fill="#B00E23"/>
<path d="M385.514 302.306C379.113 302.446 372.899 303.287 366.966 304.735L362.621 288.479C369.956 286.658 377.618 285.583 385.514 285.49V302.306Z" fill="#B00E23"/>
<path d="M458.957 343.038C455.733 337.666 451.949 332.668 447.65 328.184L459.517 316.319C464.843 321.878 469.562 327.997 473.487 334.63L458.957 343.038Z" fill="#B00E23"/>
<path d="M467.646 363.123C465.918 357.051 463.535 351.305 460.592 345.887L475.168 337.479C478.859 344.159 481.802 351.305 483.905 358.779L467.646 363.123Z" fill="#B00E23"/>
<path d="M445.361 325.894C440.876 321.55 435.923 317.72 430.597 314.45L439.007 299.877C445.641 303.894 451.761 308.612 457.274 313.983L445.361 325.894Z" fill="#B00E23"/>
<path d="M468.256 406.424C469.751 400.538 470.592 394.373 470.779 388.02H487.598C487.458 395.867 486.383 403.481 484.514 410.768L468.256 406.424Z" fill="#B00E23"/>
<path d="M470.778 384.75C470.685 378.398 469.891 372.232 468.489 366.299L484.748 361.955C486.523 369.289 487.551 376.903 487.644 384.75H470.778Z" fill="#B00E23"/>
<path d="M343.699 314.45C338.326 317.72 333.42 321.55 328.935 325.894L317.068 313.983C322.581 308.612 328.701 303.894 335.336 299.877L343.699 314.45Z" fill="#B00E23"/>
<path d="M326.645 328.184C322.347 332.668 318.562 337.666 315.339 343.038L300.762 334.63C304.733 327.997 309.405 321.831 314.731 316.319L326.645 328.184Z" fill="#B00E23"/>
<path d="M313.702 345.887C310.759 351.305 308.376 357.098 306.647 363.123L290.389 358.779C292.491 351.305 295.434 344.159 299.125 337.479L313.702 345.887Z" fill="#B00E23"/>
<path d="M407.332 304.781C401.398 303.287 395.185 302.446 388.784 302.353V285.537C396.68 285.677 404.342 286.704 411.677 288.526L407.332 304.781Z" fill="#B00E23"/>
<path d="M427.748 312.816C422.329 309.826 416.535 307.397 410.508 305.622L414.853 289.367C422.375 291.516 429.477 294.505 436.158 298.242L427.748 312.816Z" fill="#B00E23"/>
<path d="M363.789 305.622C357.715 307.397 351.922 309.826 346.549 312.816L338.139 298.242C344.82 294.505 351.969 291.516 359.444 289.367L363.789 305.622Z" fill="#B00E23"/>
</svg>
