<svg width="773" height="773" viewBox="0 0 773 773" fill="none" xmlns="http://www.w3.org/2000/svg">
<path d="M241.941 186.098C224.371 198.247 208.508 212.581 194.624 228.869C173.796 253.283 158.166 281.108 148.121 311.577C138.076 342.046 134.12 373.665 136.408 405.475C137.959 427.053 142.303 448.17 149.44 468.483C148.586 468.79 147.733 469.058 146.88 469.365C139.666 448.822 135.245 427.474 133.693 405.667C131.405 373.473 135.4 341.548 145.561 310.734C155.723 279.92 171.547 251.788 192.568 227.145C206.647 210.665 222.665 196.177 240.428 183.875C240.893 184.603 241.436 185.369 241.941 186.098Z" fill="#747474"/>
<path d="M241.941 186.098C224.371 198.247 208.508 212.581 194.624 228.869C173.796 253.283 158.166 281.108 148.121 311.577C138.076 342.046 134.12 373.665 136.408 405.475C137.959 427.053 142.303 448.17 149.44 468.483C148.586 468.79 147.733 469.058 146.88 469.365C139.666 448.822 135.245 427.474 133.693 405.667C131.405 373.473 135.4 341.548 145.561 310.734C155.723 279.92 171.547 251.788 192.568 227.145C206.647 210.665 222.665 196.177 240.428 183.875C240.893 184.603 241.436 185.369 241.941 186.098Z" fill="#747474"/>
</svg>
