<svg width="21" height="22" viewBox="0 0 21 22" fill="none" xmlns="http://www.w3.org/2000/svg">
<path d="M12.4697 9.46974L12.0142 9.26371C11.9284 9.4533 11.9691 9.67617 12.1162 9.8233L12.4697 9.46974ZM4.41317 1.58474L4.19733 1.13373C4.05098 1.20376 3.94771 1.34046 3.92034 1.50038C3.89296 1.66031 3.94489 1.82357 4.05962 1.9383L4.41317 1.58474ZM8.77817 5.94975L9.13173 6.3033C9.32699 6.10804 9.32699 5.79146 9.13173 5.59619L8.77817 5.94975ZM5.94975 8.77817L5.59619 9.13173C5.79146 9.32699 6.10804 9.32699 6.3033 9.13173L5.94975 8.77817ZM1.58474 4.41317L1.9383 4.05962C1.82357 3.94489 1.66031 3.89296 1.50038 3.92034C1.34046 3.94771 1.20376 4.05098 1.13373 4.19733L1.58474 4.41317ZM8.74293 12.7429L9.09648 12.3894C8.96606 12.259 8.77442 12.2109 8.5979 12.2644L8.74293 12.7429ZM16.0858 20.0858L16.4393 19.7322L16.0858 20.0858ZM12.5 7C12.5 7.80796 12.3261 8.57395 12.0142 9.26371L12.9253 9.67577C13.2947 8.8591 13.5 7.95286 13.5 7H12.5ZM7 1.5C10.0376 1.5 12.5 3.96243 12.5 7H13.5C13.5 3.41015 10.5899 0.5 7 0.5V1.5ZM4.629 2.03576C5.34633 1.69248 6.14999 1.5 7 1.5V0.5C5.99743 0.5 5.04655 0.727331 4.19733 1.13373L4.629 2.03576ZM9.13173 5.59619L4.76672 1.23119L4.05962 1.9383L8.42462 6.3033L9.13173 5.59619ZM6.3033 9.13173L9.13173 6.3033L8.42462 5.59619L5.59619 8.42462L6.3033 9.13173ZM1.23119 4.76672L5.59619 9.13173L6.3033 8.42462L1.9383 4.05962L1.23119 4.76672ZM1.5 7C1.5 6.14999 1.69248 5.34633 2.03576 4.629L1.13373 4.19733C0.727331 5.04655 0.5 5.99743 0.5 7H1.5ZM7 12.5C3.96243 12.5 1.5 10.0376 1.5 7H0.5C0.5 10.5899 3.41015 13.5 7 13.5V12.5ZM8.5979 12.2644C8.09283 12.4175 7.5565 12.5 7 12.5V13.5C7.65585 13.5 8.28987 13.4027 8.88796 13.2214L8.5979 12.2644ZM16.4393 19.7322L9.09648 12.3894L8.38938 13.0965L15.7322 20.4393L16.4393 19.7322ZM18.5607 19.7322C17.9749 20.318 17.0251 20.318 16.4393 19.7322L15.7322 20.4393C16.7085 21.4156 18.2915 21.4156 19.2678 20.4393L18.5607 19.7322ZM19.2322 19.0607L18.5607 19.7322L19.2678 20.4393L19.9393 19.7678L19.2322 19.0607ZM19.2322 16.9393C19.818 17.5251 19.818 18.4749 19.2322 19.0607L19.9393 19.7678C20.9157 18.7915 20.9156 17.2085 19.9393 16.2322L19.2322 16.9393ZM12.1162 9.8233L19.2322 16.9393L19.9393 16.2322L12.8233 9.11619L12.1162 9.8233Z" fill="#B00E23"/>
</svg>
